<?xml version="1.0" standalone="no"?>
<!DOCTYPE svg PUBLIC "-//W3C//DTD SVG 20010904//EN"
 "http://www.w3.org/TR/2001/REC-SVG-20010904/DTD/svg10.dtd">
<svg version="1.0" xmlns="http://www.w3.org/2000/svg"
 width="862.000000pt" height="838.000000pt" viewBox="0 0 862.000000 838.000000"
 preserveAspectRatio="xMidYMid meet">
<metadata>
Created by potrace 1.12, written by Peter Selinger 2001-2015
</metadata>
<g transform="translate(0.000000,838.000000) scale(0.100000,-0.100000)"
fill="#000000" stroke="none">
<path d="M5004 8365 c-10 -8 -33 -15 -51 -15 -28 0 -87 -31 -163 -87 -13 -10
-33 -20 -43 -23 -18 -5 -126 -227 -127 -260 0 -9 -9 -22 -20 -30 -11 -8 -20
-25 -20 -37 0 -13 -4 -23 -10 -23 -5 0 -16 -15 -23 -32 -8 -18 -21 -39 -30
-47 -10 -7 -17 -21 -17 -30 0 -26 -29 -61 -51 -61 -10 0 -19 6 -19 13 0 15
-71 14 -150 -1 -30 -6 -104 -16 -165 -22 -128 -13 -144 -15 -168 -25 -9 -4
-29 -5 -42 -2 -14 2 -28 0 -31 -4 -3 -5 -16 -9 -29 -9 -13 0 -27 -4 -30 -10
-8 -13 -56 -13 -108 1 -35 10 -57 29 -137 119 -60 68 -104 109 -121 113 -14 3
-45 22 -68 41 -24 20 -47 36 -53 36 -6 0 -19 11 -29 24 -11 14 -44 39 -74 56
-30 17 -62 39 -71 47 -17 18 -78 32 -140 33 -64 0 -70 -19 -56 -192 7 -79 11
-191 11 -250 -1 -104 7 -153 57 -349 8 -30 14 -67 14 -81 0 -14 9 -33 20 -43
15 -14 20 -31 20 -70 0 -44 4 -55 25 -71 21 -15 25 -27 25 -67 0 -27 6 -75 14
-106 8 -31 17 -72 20 -92 l6 -36 -1435 -509 c-789 -280 -1435 -512 -1435 -516
0 -5 7 -8 16 -8 9 0 126 -23 260 -51 l243 -50 1153 422 c634 232 1161 424
1171 426 13 4 17 -1 17 -19 0 -13 5 -29 11 -35 9 -9 8 -27 -2 -72 -11 -52 -16
-61 -35 -61 -13 0 -56 -13 -96 -29 -70 -28 -73 -31 -76 -65 -3 -28 -8 -36 -23
-36 -14 0 -19 -7 -19 -30 0 -19 -5 -30 -14 -30 -8 0 -38 -11 -68 -25 -29 -14
-69 -28 -88 -31 -34 -7 -69 -38 -70 -61 0 -18 11 -16 65 7 26 11 53 20 61 20
8 0 34 9 56 20 23 11 47 20 54 20 7 0 40 16 73 35 34 19 64 34 66 35 40 5 65
15 69 26 8 21 36 17 36 -6 0 -11 -7 -20 -15 -20 -8 0 -15 -4 -15 -9 0 -4 -22
-18 -50 -29 -27 -12 -50 -26 -50 -31 0 -6 -9 -11 -20 -11 -15 0 -20 -7 -20
-25 0 -27 -9 -32 -27 -14 -8 8 -13 8 -17 0 -4 -6 -20 -11 -36 -11 -16 0 -32
-4 -35 -10 -3 -5 -17 -10 -29 -10 -13 0 -56 -16 -95 -35 -73 -36 -145 -47
-154 -22 -3 6 -6 -7 -6 -30 l-1 -42 31 11 c18 6 61 26 97 45 49 25 68 31 76
22 8 -8 6 -14 -7 -23 -11 -6 -54 -33 -97 -61 -42 -27 -85 -54 -94 -60 -20 -12
-26 -66 -8 -72 7 -3 12 3 12 14 0 31 133 132 228 173 51 22 53 24 46 53 -5 27
-4 29 12 22 35 -14 64 -17 77 -7 6 5 29 12 49 16 20 4 39 12 42 19 3 9 7 8 14
-2 15 -21 5 -37 -49 -76 -27 -19 -49 -39 -49 -45 0 -5 -5 -10 -12 -10 -6 0
-40 -17 -75 -37 -54 -32 -63 -41 -63 -65 0 -55 28 -47 102 30 37 40 72 72 78
72 5 0 25 14 43 30 19 17 41 30 48 30 8 0 20 9 27 20 7 11 37 36 67 55 29 19
56 39 60 45 8 13 75 13 95 0 13 -8 13 -13 -3 -39 -20 -34 -13 -64 29 -118 24
-32 24 -33 5 -33 -12 0 -51 -16 -88 -36 -53 -28 -70 -43 -79 -67 -7 -21 -18
-33 -32 -35 -16 -3 -22 -10 -22 -30 -1 -15 -10 -52 -21 -82 -11 -30 -21 -82
-23 -115 -2 -33 -9 -94 -15 -135 -6 -41 -14 -100 -17 -130 l-6 -55 843 -174
c464 -96 960 -198 1101 -227 l257 -54 158 76 c87 42 200 96 251 120 50 24 92
47 92 51 0 23 -34 152 -46 175 -8 14 -14 37 -14 50 0 16 -8 29 -24 36 -17 7
-34 38 -66 119 -24 59 -49 111 -56 116 -7 4 -15 22 -19 40 -4 17 -25 71 -47
119 -25 56 -41 109 -45 145 -3 32 -11 63 -17 68 -6 6 -22 24 -34 42 -12 17
-31 34 -40 38 -10 3 -26 20 -34 39 -12 24 -34 42 -81 66 l-64 34 5 62 c4 59 3
62 -32 101 l-36 41 35 26 34 27 50 -26 c27 -13 56 -33 63 -43 7 -10 43 -33 80
-51 37 -17 76 -43 87 -58 15 -19 21 -21 21 -9 0 9 -19 29 -42 45 -24 17 -56
41 -71 55 -15 15 -36 26 -45 26 -9 0 -30 9 -47 21 -16 11 -40 24 -52 29 -13 6
-23 18 -23 30 0 16 7 20 30 20 17 0 30 -4 30 -8 0 -5 30 -21 68 -36 37 -15 76
-36 88 -47 12 -11 39 -23 60 -26 21 -3 43 -12 47 -20 4 -7 17 -13 28 -13 11 0
41 -19 65 -42 50 -47 58 -52 92 -62 16 -5 22 -3 22 7 0 8 -7 17 -15 21 -8 3
-15 12 -15 21 0 8 -7 15 -15 15 -15 0 -88 43 -113 67 -7 7 -22 13 -32 13 -10
0 -20 6 -23 13 -2 6 -46 34 -96 60 -55 29 -91 55 -91 64 0 11 6 13 23 8 12 -4
38 -9 57 -12 19 -2 44 -8 55 -13 30 -12 142 -49 210 -69 60 -18 125 -43 157
-61 10 -6 26 -10 37 -10 10 0 24 -7 31 -15 19 -23 40 -18 40 10 0 18 -5 25
-19 25 -25 0 -122 52 -120 65 1 6 -16 15 -37 22 -22 6 -32 12 -23 12 9 1 486
-80 1060 -179 574 -99 1052 -180 1062 -180 10 0 110 44 223 97 151 72 200 100
187 105 -10 4 -668 118 -1463 253 -795 135 -1457 248 -1472 251 -20 4 -30 15
-39 42 -6 20 -37 86 -68 145 -55 108 -56 110 -53 185 2 46 8 82 16 92 8 8 16
32 20 53 3 20 9 53 12 72 5 26 -1 50 -25 101 -27 58 -30 70 -21 107 6 27 6 95
-2 192 -8 121 -14 154 -29 170 -46 51 -70 170 -73 366 -1 91 -5 121 -19 142
-20 31 -35 33 -63 12z m-243 -1111 c51 -23 60 -32 69 -63 23 -83 9 -106 -67
-113 l-51 -5 5 73 6 73 -32 18 c-17 10 -31 24 -31 31 0 19 38 14 101 -14z
m-153 -11 c5 -10 13 -51 16 -92 l7 -73 -73 6 c-92 9 -128 16 -128 25 0 4 13
25 30 47 16 21 30 44 30 51 0 13 66 50 92 52 10 0 21 -7 26 -16z m-758 -83
c11 -11 28 -20 38 -20 13 0 23 -13 32 -40 7 -22 11 -41 9 -43 -13 -8 -109 -37
-123 -37 -10 0 -16 9 -16 24 0 14 -17 44 -40 71 -22 25 -40 50 -40 56 0 5 27
9 60 9 47 0 64 -4 80 -20z m-187 -57 c3 -21 9 -59 13 -85 l7 -48 -57 0 c-42 0
-56 4 -56 14 0 8 -4 16 -9 18 -17 6 41 118 61 118 10 0 18 5 18 10 0 6 4 10 9
10 5 0 11 -17 14 -37z m637 -105 c0 -5 9 -8 20 -8 11 0 20 -4 20 -10 0 -5 -8
-10 -18 -10 -24 0 -47 -67 -30 -87 8 -10 4 -13 -21 -13 l-32 0 3 55 c3 37 -1
56 -9 59 -27 11 -11 24 27 23 22 -1 40 -5 40 -9z m-122 -55 c-2 -22 -9 -29
-30 -31 -21 -2 -28 1 -28 13 0 9 9 19 20 22 11 3 20 9 20 14 0 5 5 9 11 9 6 0
9 -12 7 -27z m40 -46 c2 -10 -3 -17 -12 -17 -10 0 -16 9 -16 21 0 24 23 21 28
-4z m-48 -357 c0 -5 -7 -10 -15 -10 -8 0 -15 5 -15 10 0 6 7 10 15 10 8 0 15
-4 15 -10z m-40 -60 c0 -20 -25 -38 -36 -27 -7 6 18 47 28 47 5 0 8 -9 8 -20z
m1163 -102 c12 -7 24 -16 27 -19 3 -3 19 -11 37 -18 34 -14 60 -38 50 -47 -7
-7 -109 35 -122 51 -5 6 -18 14 -27 18 -10 3 -18 11 -18 17 0 14 25 13 53 -2z
m147 -93 c0 -8 -4 -15 -10 -15 -5 0 -10 7 -10 15 0 8 5 15 10 15 6 0 10 -7 10
-15z m-2245 -40 c0 -20 2 -20 -128 -46 -96 -19 -92 10 5 35 32 8 66 20 75 25
26 15 48 9 48 -14z m-171 -81 c23 -9 20 -34 -4 -34 -13 0 -20 7 -20 20 0 22 1
23 24 14z m201 -34 c-10 -17 -85 -51 -85 -39 0 13 20 34 40 42 25 9 52 8 45
-3z m1885 -35 c0 -8 -9 -15 -20 -15 -11 0 -20 7 -20 15 0 8 9 15 20 15 11 0
20 -7 20 -15z m-430 -15 c0 -5 -7 -10 -16 -10 -8 0 -12 5 -9 10 3 6 10 10 16
10 5 0 9 -4 9 -10z m210 0 c0 -5 11 -12 25 -16 24 -6 26 -10 23 -58 -4 -65
-22 -62 -26 3 -2 38 -6 49 -17 45 -7 -3 -18 4 -25 15 -9 17 -8 21 5 21 8 0 15
-4 15 -10z m90 -36 c0 -15 -6 -24 -15 -24 -15 0 -21 40 -9 53 12 11 24 -3 24
-29z m-430 1 c0 -8 -7 -15 -15 -15 -8 0 -15 7 -15 15 0 8 7 15 15 15 8 0 15
-7 15 -15z m270 -7 c0 -23 -67 -88 -89 -88 -6 0 -11 17 -11 38 0 33 4 39 38
54 51 22 62 22 62 -4z m-1760 -9 c0 -5 -11 -9 -25 -9 -26 0 -34 15 -12 23 16
5 37 -3 37 -14z m1540 -9 c0 -11 -7 -20 -15 -20 -8 0 -15 9 -15 20 0 11 7 20
15 20 8 0 15 -9 15 -20z m64 5 c3 -8 12 -15 19 -15 9 0 14 -12 15 -30 0 -20
-4 -30 -14 -30 -11 0 -13 6 -9 19 3 11 1 22 -5 26 -7 4 -10 -12 -8 -51 2 -39
-1 -59 -9 -61 -10 -4 -13 16 -13 76 0 75 10 102 24 66z m396 -30 c0 -38 -3
-45 -20 -45 -16 0 -18 4 -11 23 5 12 5 32 0 45 -7 18 -5 22 11 22 17 0 20 -7
20 -45z m40 36 c0 -5 -7 -11 -15 -15 -9 -3 -15 0 -15 9 0 8 7 15 15 15 8 0 15
-4 15 -9z m-612 -31 c7 -11 19 -20 27 -20 9 0 15 -9 15 -21 0 -26 19 -44 45
-44 16 0 20 -7 20 -36 0 -22 8 -45 19 -58 11 -12 17 -23 15 -25 -11 -9 -236
-37 -377 -47 -88 -6 -160 -16 -164 -22 -4 -7 -12 -4 -23 6 -9 10 -25 17 -35
17 -10 0 -26 -7 -35 -17 -13 -12 -19 -13 -24 -4 -5 7 -35 15 -67 18 -32 3 -71
6 -86 8 -16 1 -45 3 -65 4 -30 1 -40 6 -50 27 -11 24 -9 28 18 51 26 22 29 30
23 57 -3 17 -15 44 -26 59 -11 16 -19 29 -17 31 7 6 275 26 342 26 55 0 74 -4
98 -22 26 -20 43 -23 115 -23 80 0 98 -5 73 -21 -15 -9 -3 -84 18 -106 11 -12
31 -18 60 -18 36 0 49 6 78 34 18 18 30 38 25 42 -5 5 -10 23 -12 39 -2 24 -9
32 -35 40 -33 9 -44 29 -20 38 23 10 32 7 45 -13z m-920 -24 c12 -1 22 -2 22
-2 0 -1 -7 -18 -15 -37 -8 -20 -15 -52 -15 -70 0 -49 -19 -62 -64 -43 -40 16
-55 41 -37 59 6 6 11 33 11 60 l0 49 38 -8 c20 -4 47 -8 60 -8z m1263 -4 c-13
-24 -40 -46 -47 -39 -10 10 7 46 24 50 31 8 33 7 23 -11z m149 -7 c0 -8 -7
-15 -15 -15 -16 0 -20 12 -8 23 11 12 23 8 23 -8z m-1320 -10 c0 -4 -7 -19
-15 -35 -9 -18 -13 -40 -9 -55 7 -29 2 -31 -20 -9 -29 29 -12 104 24 104 11 0
20 -2 20 -5z m796 -6 c8 -13 -14 -29 -32 -22 -16 6 -29 -36 -15 -50 16 -16 14
-37 -3 -37 -22 0 -53 51 -54 88 -1 32 0 32 48 32 27 0 52 -5 56 -11z m450 -23
c32 -33 3 -116 -41 -116 -23 0 -18 18 12 46 23 21 25 27 15 50 -18 38 -13 46
14 20z m74 -6 c0 -5 -7 -10 -15 -10 -8 0 -15 5 -15 10 0 6 7 10 15 10 8 0 15
-4 15 -10z m-239 -89 c31 -11 40 -41 12 -41 -31 0 -63 41 -63 80 0 51 14 60
18 12 3 -35 7 -42 33 -51z m-111 59 c0 -5 -4 -10 -10 -10 -5 0 -10 5 -10 10 0
6 5 10 10 10 6 0 10 -4 10 -10z m175 0 c10 -16 -5 -50 -21 -50 -17 0 -28 24
-20 45 6 17 32 20 41 5z m15 -110 c0 -22 -4 -40 -10 -40 -5 0 -10 18 -10 40 0
22 5 40 10 40 6 0 10 -18 10 -40z m89 -94 c7 -8 26 -18 43 -21 24 -6 35 -17
54 -58 13 -29 24 -68 24 -88 0 -55 -41 -139 -68 -139 -6 0 -29 -9 -51 -21
l-41 -21 -76 23 c-75 22 -77 24 -97 68 -32 71 -33 128 -5 181 21 39 32 48 84
67 69 26 117 29 133 9z"/>
<path d="M3970 5970 c0 -6 -9 -10 -20 -10 -21 0 -40 -27 -40 -59 0 -12 -5 -21
-12 -21 -6 0 -4 -7 5 -18 10 -10 17 -25 17 -33 0 -43 63 -51 141 -18 44 19 49
25 49 54 0 23 -10 43 -35 69 -19 21 -41 36 -48 33 -6 -2 -22 0 -34 4 -14 5
-23 5 -23 -1z m48 -31 c11 -18 11 -23 -5 -35 -10 -7 -24 -14 -32 -14 -10 0 -8
-6 7 -23 29 -30 28 -37 -5 -37 -37 0 -57 38 -40 75 7 14 18 25 25 25 6 0 12 7
12 15 0 22 23 18 38 -6z"/>
<path d="M8415 6031 c-214 -100 -2848 -1333 -3024 -1417 l-115 -54 -950 195
c-523 107 -1655 339 -2516 515 -861 176 -1618 332 -1683 345 -64 14 -119 25
-122 25 -3 0 -5 -1018 -5 -2263 l0 -2263 287 -62 c159 -34 522 -111 808 -172
286 -61 635 -135 775 -165 2721 -581 3359 -715 3378 -713 12 2 776 383 1697
848 l1675 845 0 2213 c0 1216 -3 2212 -7 2211 -5 0 -93 -40 -198 -88z m-6849
-1096 c87 -19 166 -39 175 -44 9 -5 306 -73 660 -152 354 -78 645 -144 647
-145 2 -1 6 -64 9 -140 4 -79 11 -143 17 -149 6 -6 166 -44 356 -85 190 -40
347 -75 349 -77 2 -1 -4 -21 -14 -43 -21 -48 -61 -79 -107 -86 -38 -6 -2259
485 -2305 509 -151 80 -189 349 -60 427 45 28 90 25 273 -15z"/>
</g>
</svg>
